<svg xmlns="http://www.w3.org/2000/svg" width="21.488" height="17.167" viewBox="0 0 21.488 17.167">
  <g id="svgexport-7_29_" data-name="svgexport-7 (29)" transform="translate(0 -51.476)">
    <path id="Path_45425" data-name="Path 45425" d="M21.3,64.063,19.639,62.4V56.689l1.087-.392a.629.629,0,0,0,0-1.184l-9.941-3.6a.629.629,0,0,0-.429,0l-9.941,3.6a.629.629,0,0,0,0,1.182L4.08,57.655V61.8a.629.629,0,0,0,.113.36A3.837,3.837,0,0,0,5.6,63.239a10.816,10.816,0,0,0,4.837.941,11,11,0,0,0,4.861-.939,3.99,3.99,0,0,0,1.43-1.067.63.63,0,0,0,.121-.371V57.7l1.532-.552V62.4l-1.664,1.664a.629.629,0,0,0,0,.89l1.664,1.664v1.4a.629.629,0,0,0,1.259,0v-1.4L21.3,64.953A.629.629,0,0,0,21.3,64.063ZM10.571,52.775,18.66,55.7l-8.221,2.964L2.459,55.712Zm5.018,8.778c-2.152,1.936-8.546,1.714-10.251.006V58.121l4.879,1.807a.625.625,0,0,0,.432,0l4.94-1.781v3.4Zm3.42,3.914-.959-.959.959-.959.959.959Z" transform="translate(0)" fill="#514d55"/>
  </g>
</svg>
