<svg xmlns="http://www.w3.org/2000/svg" width="27.708" height="33.649" viewBox="0 0 27.708 33.649">
  <g id="Group_26037" data-name="Group 26037" transform="translate(-263.905 -300.663)">
    <g id="svgexport-7_8_" data-name="svgexport-7 (8)" transform="translate(263.905 300.843)">
      <g id="pdf" transform="translate(0 0)">
        <g id="编组" transform="translate(2.241)">
          <path id="矩形" d="M15.224.5V7.862a2.881,2.881,0,0,0,2.881,2.881h7.362V30.909a2.241,2.241,0,0,1-2.241,2.241H2.741A2.241,2.241,0,0,1,.5,30.909V2.741A2.241,2.241,0,0,1,2.741.5Z" transform="translate(-0.5 -0.18)" fill="#fff" stroke="#306fa3" stroke-width="1" fill-rule="evenodd"/>
          <g id="Group_22251" data-name="Group 22251" transform="translate(2.881)">
            <path id="矩形-2" data-name="矩形" d="M24,0,34.243,10.243H26.561A2.561,2.561,0,0,1,24,7.682Z" transform="translate(-11.836)" fill="#306fa3" fill-rule="evenodd"/>
            <rect id="矩形-3" data-name="矩形" width="19.206" height="1.28" rx="0.64" transform="translate(0 22.406)" fill="#306fa3"/>
            <rect id="矩形备份" width="11.523" height="1.28" rx="0.64" transform="translate(0 27.528)" fill="#306fa3"/>
          </g>
        </g>
        <g id="Group_22252" data-name="Group 22252" transform="translate(0 3.841)">
          <path id="路径" d="M10.412,12h11.26a1.415,1.415,0,0,1,1.412,1.412v11.26a1.415,1.415,0,0,1-1.412,1.412H10.412A1.415,1.415,0,0,1,9,24.672V13.4A1.413,1.413,0,0,1,10.412,12Z" transform="translate(-9 -12)" fill="#fc495b"/>
          <g id="PDF-2" data-name="PDF" transform="translate(1.921 4.801)">
            <path id="形状" d="M0,.423A.862.862,0,0,1,.022.2.22.22,0,0,1,.109.077.416.416,0,0,1,.291.016,2.413,2.413,0,0,1,.6,0h.9a3.088,3.088,0,0,1,.714.07A1.08,1.08,0,0,1,2.7.307a.945.945,0,0,1,.269.439,2.315,2.315,0,0,1,.083.669,2.254,2.254,0,0,1-.09.679,1.083,1.083,0,0,1-.275.461,1.112,1.112,0,0,1-.477.262,2.576,2.576,0,0,1-.7.083H.832V4.193a.329.329,0,0,1-.1.23.424.424,0,0,1-.32.1A.408.408,0,0,1,.1,4.417.337.337,0,0,1,0,4.193ZM.832,2.183H1.5A.707.707,0,0,0,2.065,2a.9.9,0,0,0,.15-.583.932.932,0,0,0-.054-.346A.533.533,0,0,0,2.01.861.524.524,0,0,0,1.786.752,1.284,1.284,0,0,0,1.5.723H.832Z" transform="translate(0 0)" fill="#fff"/>
            <path id="形状-2" data-name="形状" d="M6.97,0a2.012,2.012,0,0,1,.861.17,1.615,1.615,0,0,1,.6.467,1.976,1.976,0,0,1,.346.7,3.3,3.3,0,0,1,.112.88,3.414,3.414,0,0,1-.115.919,1.949,1.949,0,0,1-.352.707,1.587,1.587,0,0,1-.589.455A1.98,1.98,0,0,1,7,4.462H5.786q-.224,0-.285-.074a.329.329,0,0,1-.061-.214V.288A.342.342,0,0,1,5.5.074Q5.555,0,5.786,0Zm-.7,3.8H7q1.05,0,1.05-1.594a3.348,3.348,0,0,0-.058-.653,1.227,1.227,0,0,0-.2-.483.9.9,0,0,0-.371-.3,1.439,1.439,0,0,0-.583-.1h-.57Z" transform="translate(-1.957 0)" fill="#fff"/>
            <path id="路径-2" data-name="路径" d="M13.879,1.8a.449.449,0,0,1,.294.09.375.375,0,0,1,.09.275.351.351,0,0,1-.09.272.438.438,0,0,1-.294.08H12.522V4.264a.24.24,0,0,1-.1.176.488.488,0,0,1-.323.086.462.462,0,0,1-.317-.086.245.245,0,0,1-.093-.176V.352a.324.324,0,0,1,.1-.275A.509.509,0,0,1,12.1,0h1.978a.417.417,0,0,1,.278.08.369.369,0,0,1,.1.278.32.32,0,0,1-.1.278.458.458,0,0,1-.288.08H12.522V1.8Z" transform="translate(-4.206 0)" fill="#fff"/>
          </g>
        </g>
      </g>
    </g>
  </g>
</svg>
