<svg xmlns="http://www.w3.org/2000/svg" width="37" height="37" viewBox="0 0 37 37">
  <g id="Group_17643" data-name="Group 17643" transform="translate(0.383 0.383)">
    <circle id="Ellipse_371" data-name="Ellipse 371" cx="18.5" cy="18.5" r="18.5" transform="translate(-0.383 -0.383)" fill="#f2f2f3"/>
    <g id="Group_17628" data-name="Group 17628" transform="translate(5.739 4.531)">
      <g id="Group_17627" data-name="Group 17627" transform="translate(0)">
        <path id="Path_7800" data-name="Path 7800" d="M202.631,331.875a1.227,1.227,0,0,0-.233-.725.565.565,0,0,0-.735-.163.142.142,0,0,0,.144.246.259.259,0,0,1,.343.07.337.337,0,0,0-.278.07l-.023.012a.273.273,0,0,0-.128.191,1,1,0,0,0-.089.347,1.208,1.208,0,0,0,.162.725.588.588,0,0,0,.272.315.367.367,0,0,0,.472-.158A1.31,1.31,0,0,0,202.631,331.875Z" transform="translate(-197.694 -320.593)" fill="#2d2d4a"/>
        <path id="Path_7801" data-name="Path 7801" d="M225.131,331.875a1.227,1.227,0,0,0-.233-.725.565.565,0,0,0-.735-.163.142.142,0,0,0,.144.246.259.259,0,0,1,.344.07.336.336,0,0,0-.278.07l-.023.012a.273.273,0,0,0-.128.191,1,1,0,0,0-.089.347,1.208,1.208,0,0,0,.162.725.589.589,0,0,0,.272.315.367.367,0,0,0,.472-.158A1.31,1.31,0,0,0,225.131,331.875Z" transform="translate(-215.435 -320.593)" fill="#2d2d4a"/>
        <path id="Path_7802" data-name="Path 7802" d="M207.086,357.456a.773.773,0,0,1,.773-.266c.439.144.606-.2,1.157-.035a1.281,1.281,0,0,0,1.2-.182" transform="translate(-202.024 -341.141)" fill="none" stroke="#2d2d4a" stroke-miterlimit="10" stroke-width="0.269"/>
        <path id="Path_7803" data-name="Path 7803" d="M208.985,359.34a2.523,2.523,0,0,0,1.591-.055" transform="translate(-203.521 -342.964)" fill="none" stroke="#2d2d4a" stroke-miterlimit="10" stroke-width="0.269"/>
        <path id="Path_7804" data-name="Path 7804" d="M191.6,315.012a9.936,9.936,0,0,1-.952,5.711c-1.481,3.314,1.128,9.695,10.329,7.4" transform="translate(-188.756 -308.055)" fill="none" stroke="#2d2d4a" stroke-miterlimit="10" stroke-width="0.25"/>
        <path id="Path_7805" data-name="Path 7805" d="M201.409,321.514a5.877,5.877,0,0,0,2.291-2.785s1.41.07,1.763-2.715-1.163-3-1.763-2.468S203,315.8,203,315.8l-.6.22s.67-2.617,0-3-3.631-1.3-3.666-5.006c0,0-5.958,3.1-6.064.846a5.612,5.612,0,0,0-3.666.881c-.74.423-1.657-.282-1.586-.776" transform="translate(-186.51 -302.536)" fill="none" stroke="#2d2d4a" stroke-miterlimit="10" stroke-width="0.25"/>
        <path id="Path_7806" data-name="Path 7806" d="M235.15,367.286a6.671,6.671,0,0,1,0,1.894c-.178.282.351,1.622,2.466.423a8.767,8.767,0,0,0,3.067-2.82v-2.431" transform="translate(-224.127 -346.958)" fill="none" stroke="#2d2d4a" stroke-miterlimit="10" stroke-width="0.25"/>
        <path id="Path_7807" data-name="Path 7807" d="M190.259,391.832s.917-2.362,2.362-2.82,7.158-1.833,7.158-1.833" transform="translate(-188.756 -364.957)" fill="none" stroke="#2d2d4a" stroke-miterlimit="10" stroke-width="0.25"/>
        <path id="Path_7808" data-name="Path 7808" d="M261.428,375.845s0,1.3,2.45,1.622,5.024,1.34,6.117,5.429" transform="translate(-244.872 -356.021)" fill="none" stroke="#2d2d4a" stroke-miterlimit="10" stroke-width="0.25"/>
        <path id="Path_7809" data-name="Path 7809" d="M186.264,309.768s-2.176.257-2.634-1.118a3.033,3.033,0,0,1,.666-3.137" transform="translate(-183.396 -300.564)" fill="none" stroke="#2d2d4a" stroke-miterlimit="10" stroke-width="0.25"/>
        <path id="Path_7810" data-name="Path 7810" d="M202.083,294.047s1.117-4.651-1.738-6.731c0,0-.106-3.843-4.83-4.936s-6.874,1.622-8.5,1.728-4.885,2.756-3.553,3.81" transform="translate(-183.154 -282.121)" fill="none" stroke="#2d2d4a" stroke-miterlimit="10" stroke-width="0.25"/>
        <path id="Path_7811" data-name="Path 7811" d="M265.3,337.584s.035-.776-.352-.952-1.3,1.551-.564,3.067" transform="translate(-246.981 -325.092)" fill="none" stroke="#2d2d4a" stroke-miterlimit="10" stroke-width="0.25"/>
        <path id="Path_7812" data-name="Path 7812" d="M208.74,334.512s.177.665,0,.844-.952.284-1.058.989.14,1.657,1.657,1.445" transform="translate(-202.477 -323.43)" fill="none" stroke="#2d2d4a" stroke-miterlimit="10" stroke-width="0.25"/>
        <path id="Path_7813" data-name="Path 7813" d="M203.076,323.836a.914.914,0,0,0-1.481.458" transform="translate(-197.694 -314.834)" fill="none" stroke="#2d2d4a" stroke-miterlimit="10" stroke-width="0.25"/>
        <path id="Path_7814" data-name="Path 7814" d="M224.095,322.182a.886.886,0,0,1,1.586.342" transform="translate(-215.435 -313.407)" fill="none" stroke="#2d2d4a" stroke-miterlimit="10" stroke-width="0.25"/>
      </g>
    </g>
  </g>
</svg>
