<svg xmlns="http://www.w3.org/2000/svg" width="12.779" height="15.464" viewBox="0 0 12.779 15.464">
  <g id="notes" transform="translate(-44.46 0.001)">
    <g id="Group_23426" data-name="Group 23426" transform="translate(44.46 -0.001)">
      <g id="Group_23424" data-name="Group 23424" transform="translate(0.302 0.302)">
        <path id="Path_47708" data-name="Path 47708" d="M336.108,11.41a1.121,1.121,0,1,0-.03-.433,1.123,1.123,0,0,0,.03.433Z" transform="translate(-327.564 -9.996)" fill="#ff5d7d" fill-rule="evenodd"/>
        <path id="Path_47709" data-name="Path 47709" d="M296.713,43.717a1.123,1.123,0,0,1-1.256-1.256,1.265,1.265,0,1,0,1.256,1.256Z" transform="translate(-286.942 -41.48)" fill="#ff5d7d" fill-rule="evenodd"/>
        <path id="Path_47710" data-name="Path 47710" d="M63.294,49.363A1.266,1.266,0,0,1,61.7,48.23l-4.538-1.216-2.706,10.1,2.171.582,5.4,1.448.507-1.894,1.894.507,2-7.456.2-.749-2.62-.7A1.26,1.26,0,0,1,63.294,49.363Z" transform="translate(-54.461 -45.896)" fill="#ffda8f" fill-rule="evenodd"/>
        <path id="Path_47711" data-name="Path 47711" d="M307.645,386.4l-1.894-.507-.507,1.894Z" transform="translate(-297.669 -374.538)" fill="#ffcd69" fill-rule="evenodd"/>
        <path id="Path_47712" data-name="Path 47712" d="M134.154,163.279l-2.4,1.386-5.4-1.448v3.061h9.8V155.823Z" transform="translate(-124.179 -151.418)" fill="#ffc144" fill-rule="evenodd"/>
      </g>
      <g id="Group_23425" data-name="Group 23425" transform="translate(0 0)">
        <path id="Path_47713" data-name="Path 47713" d="M57.2,3.805a.3.3,0,0,0-.183-.141l-2.266-.607a1.556,1.556,0,0,0,.068-.275A1.424,1.424,0,1,0,53.032,1a1.568,1.568,0,0,0-1.3,1.25L47.546,1.128a.3.3,0,0,0-.37.214l-2.706,10.1a.3.3,0,0,0,.214.37l1.948.522v2.829a.3.3,0,0,0,.3.3h9.8a.3.3,0,0,0,.3-.3V4.745l.191-.711a.3.3,0,0,0-.03-.229ZM54.178.631a.82.82,0,1,1-.58,1,.821.821,0,0,1,.58-1ZM52.434,2.065a.956.956,0,0,1,.547-.438,1.425,1.425,0,0,0,1.205,1.206.963.963,0,1,1-1.752-.769Zm-4.752-.276,4.054,1.086q.008.038.019.077a1.56,1.56,0,0,0,.213.468l-.317.317a.3.3,0,1,0,.427.427l.317-.317A1.564,1.564,0,0,0,54.43,3.6l2.137.573-2.042,7.622-1.6-.429a.3.3,0,0,0-.37.214l-.429,1.6-6.991-1.873Zm6.274,10.476-1.138.657.241-.9Zm2.478,2.594h-9.2V12.494l5.023,1.346a.3.3,0,0,0,.229-.03l2.4-1.386a.3.3,0,0,0,.141-.183L56.434,7v7.86Z" transform="translate(-44.46 0.001)"/>
        <path id="Path_47714" data-name="Path 47714" d="M161.037,169.569l5.967,1.6a.3.3,0,1,0,.156-.583l-5.967-1.6a.3.3,0,1,0-.156.583Z" transform="translate(-157.299 -163.871)"/>
        <path id="Path_47715" data-name="Path 47715" d="M150.638,208.381l5.967,1.6a.3.3,0,1,0,.156-.583l-5.967-1.6a.3.3,0,1,0-.156.583Z" transform="translate(-147.214 -201.511)"/>
        <path id="Path_47716" data-name="Path 47716" d="M142.064,247.056l-1.67-.448a.3.3,0,1,0-.156.583l1.67.448a.3.3,0,0,0,.156-.583Z" transform="translate(-137.127 -239.15)"/>
        <path id="Path_47717" data-name="Path 47717" d="M239.1,273.07h0a.3.3,0,1,0,.3.3A.3.3,0,0,0,239.1,273.07Z" transform="translate(-232.926 -264.822)"/>
      </g>
    </g>
  </g>
</svg>
